<?xml version="1.0" encoding="utf-8"?>
<!-- Generator: Adobe Illustrator 26.0.1, SVG Export Plug-In . SVG Version: 6.00 Build 0)  -->
<svg version="1.1" id="Layer_1" xmlns="http://www.w3.org/2000/svg" xmlns:xlink="http://www.w3.org/1999/xlink" x="0px" y="0px"
	 viewBox="0 0 841.9 356.6" style="enable-background:new 0 0 841.9 356.6;" xml:space="preserve">
<style type="text/css">
	.st0{clip-path:url(#SVGID_00000152251424066485650640000012356156735624255895_);fill:#0066B3;}
	.st1{clip-path:url(#SVGID_00000152251424066485650640000012356156735624255895_);fill:#812990;}
	.st2{clip-path:url(#SVGID_00000152251424066485650640000012356156735624255895_);fill:#72BF44;}
	.st3{clip-path:url(#SVGID_00000152251424066485650640000012356156735624255895_);fill:#007DC5;}
	.st4{clip-path:url(#SVGID_00000152251424066485650640000012356156735624255895_);fill:#C4161C;}
	.st5{clip-path:url(#SVGID_00000152251424066485650640000012356156735624255895_);fill:#FFFFFF;}
	.st6{clip-path:url(#SVGID_00000152251424066485650640000012356156735624255895_);fill:none;stroke:#007DC5;stroke-width:0.562;}
	.st7{clip-path:url(#SVGID_00000152251424066485650640000012356156735624255895_);}
</style>
<g>
	<defs>
		<rect id="SVGID_1_" width="841.9" height="356.6"/>
	</defs>
	<clipPath id="SVGID_00000160160267746996078720000008244210620176493212_">
		<use xlink:href="#SVGID_1_"  style="overflow:visible;"/>
	</clipPath>
	<path style="clip-path:url(#SVGID_00000160160267746996078720000008244210620176493212_);fill:#0066B3;" d="M20.7,36.2
		c18-14.2,34.9-21.3,50.5-21.3c15.5,0,32.4,7.1,50.6,21.3c4.9,5.5,9.3,11.5,13.1,18c-5.9,9.2-14.6,21-26.2,35.4
		c-9.2,11.5-23.1,27.7-41.6,48.6c14.8-0.1,27.1-1.3,36.7-3.5c8.8-2,18.8-5.8,29.7-11.3c-3.4,5.4-7.3,10.5-11.7,15.4
		c-18.2,14.1-35,21.1-50.6,21.1c-15.7,0-32.5-7.1-50.5-21.1c-5.1-5.7-9.6-11.9-13.4-18.5c5.7-9.5,14.1-21.3,25.2-35.5
		c8.6-11.1,22-27.3,40.4-48.7c-14.9,0.5-26.6,1.7-35.2,3.8c-8.6,2.1-18.1,5.8-28.5,11.1C12.5,45.8,16.3,40.9,20.7,36.2"/>
	<path style="clip-path:url(#SVGID_00000160160267746996078720000008244210620176493212_);fill:#812990;" d="M255.8,81.3
		c11.5,0.7,22,1.4,31.4,2.2c0.7,8.2-3.1,18.2-11.2,29.8c-3.9,5.6-8.5,10.8-13.9,15.5c3.5,6,5.2,10.3,5.2,12.8
		c-5.4,4.7-10,8.1-13.8,10.3c-3.8,2.2-9.1,4.5-16,6.9c-0.7-1.2-1.8-3.1-3.2-5.7c-12.6,8.7-24.5,11.6-35.8,8.6
		c-7-1.9-14.5-6.1-22.6-12.7c-9.5-7.7-17.2-15.9-23-24.4c-4.8-7-6.3-13.6-4.5-19.8c2.7-9.7,12.5-18.5,29.3-26.3
		c-7.7-8.5-11.5-15.8-11.5-22c0-1.4,0.2-2.8,0.5-4.1c1.5-4.9,5-10.1,10.3-15.5c4.9-5.1,10.1-9.2,15.7-12.3
		c6.6-3.6,12.7-5.6,18.5-5.9c14-0.8,25.7,4.3,35.1,15.1c5.4,6.2,8.1,12.2,8.1,17.9c0,9.9-8.7,19.9-26.1,29.9
		c6.5,8.4,12.8,16.7,18.8,24.9c2.4-3.3,4.4-7.4,6.1-12.3C255,89.2,255.9,84.9,255.8,81.3 M221.4,136.4
		c-9.3-11.6-18.1-22.8-26.4-33.7c-8.5,6.1-12.8,12.3-12.8,18.7c0,5.2,2.5,10,7.5,14.4c3.9,3.4,8.2,5.3,13,5.6
		C208.1,141.7,214.3,140.1,221.4,136.4 M209.6,58.4c8.3-5.5,12.4-10.3,12.2-14.6c-0.3-5.4-3.7-8-10.4-7.7
		c-6.8,0.2-10.4,2.7-10.9,7.6C200.4,46.4,203.4,51.3,209.6,58.4"/>
	<path style="clip-path:url(#SVGID_00000160160267746996078720000008244210620176493212_);fill:#0066B3;" d="M430.4,66.4
		c-10.1-2.4-19-4.1-26.8-5.2c-6.7-0.9-15.6-1.7-26.7-2.3l-0.2-3.3c-0.1-0.8-0.1-1.9-0.1-3.4c-0.4-7.7-4.7-11.7-12.8-11.9
		c-3.4-0.1-6.3,0.6-8.7,2c-2.6,1.5-4,3.7-4.2,6.3c-0.3,5.1,2.5,9.3,8.6,12.4c18.8,10,34.4,17.6,46.7,23c17.6,7.7,26.3,15,26.3,22
		c0,1.3-0.5,3.2-1.5,5.6c-3.9,9.1-15,20.7-33.1,34.6c-12.4,9.4-24.2,14-35.6,13.6c-8.5-0.3-16.9-2.8-25.2-7.5
		c-6.8-3.9-14.1-9.3-21.8-16.2c-10.2-9.1-16.4-16.5-18.5-22c-1.3-3.2-2.3-6-2.9-8.5c17.3,4,35.3,6.3,54,7.2c0.2,6,0.4,9.2,0.5,9.6
		c0.6,3.7,2.2,6.5,4.7,8.3c3,2.2,6.7,3.3,11.3,3.3c3.5,0,6.3-1,8.5-3c2-1.9,3.1-4.2,3.3-7.1c0.3-6.4-6.7-12.7-21-18.9
		c-4.1-1.8-9.9-4.4-17.4-7.8l-2.1-1c-2.6-1.2-6.2-2.9-10.9-5.2c-6.9-3.3-13.8-7.3-20.6-12.1c-5-3.5-7.5-7.1-7.5-11
		c0-1.6,0.5-3.7,1.5-6.4c1.9-4.9,6.9-11.1,14.8-18.7c9.1-8.5,17.5-15.1,25.1-19.6c9.2-5.6,17.8-8.4,25.8-8.5
		c10.1-0.1,20.6,3.7,31.7,11.5c6.8,4.8,13.1,10.1,19,15.9c7.4,7.2,12,13.5,14,18.7C429,61.6,429.5,63.4,430.4,66.4"/>
	<path style="clip-path:url(#SVGID_00000160160267746996078720000008244210620176493212_);fill:#72BF44;" d="M536.5,232.9
		c0,0,262.1-3.3,298.1,117.1h-61C773.6,349.9,827.7,259.1,536.5,232.9"/>
	<path style="clip-path:url(#SVGID_00000160160267746996078720000008244210620176493212_);fill:#007DC5;" d="M463.4,224.6
		c0,0,243.8-3.1,277.4,108.9H684C684,333.5,734.4,249,463.4,224.6"/>
	<path style="clip-path:url(#SVGID_00000160160267746996078720000008244210620176493212_);fill:#72BF44;" d="M321.9,198.3
		c0,0,262.1,3.6,298.1-128.7h-61C559,69.6,613.1,169.5,321.9,198.3"/>
	<path style="clip-path:url(#SVGID_00000160160267746996078720000008244210620176493212_);fill:#C4161C;" d="M248.8,207.4
		c0,0,243.8,3.4,277.4-119.7h-56.8C469.5,87.6,519.8,180.5,248.8,207.4"/>
	<path style="clip-path:url(#SVGID_00000160160267746996078720000008244210620176493212_);fill:#FFFFFF;" d="M709.8,250.9
		c0,14.7-13.7,26.8-30.5,26.8H234.3c-16.8,0-30.4-12-30.4-26.8v-52.6c0-14.7,13.7-26.7,30.4-26.7h445.1c16.8,0,30.5,12,30.5,26.7
		V250.9z"/>
	
		<path style="clip-path:url(#SVGID_00000160160267746996078720000008244210620176493212_);fill:none;stroke:#007DC5;stroke-width:0.562;" d="
		M709.8,250.9c0,14.7-13.7,26.8-30.5,26.8H234.3c-16.8,0-30.4-12-30.4-26.8v-52.6c0-14.7,13.7-26.7,30.4-26.7h445.1
		c16.8,0,30.5,12,30.5,26.7V250.9z"/>
	<path style="clip-path:url(#SVGID_00000160160267746996078720000008244210620176493212_);" d="M288.5,254c-4.3,1.3-11.4,2.4-21,2.4
		c-21.2,0-35.3-8.9-35.3-23.5c0-12.5,8.1-22.1,20.2-27.7c8.3-4,18-5.8,29.3-5.8c8.7,0,15.2,1.4,17.6,2.3l-4.7,9.6
		c-2.3-0.8-7.6-1.8-14.5-1.8c-6.9,0-13.4,1.5-18.3,4.3c-6.6,3.8-11,10.1-11,17.8c0,8.8,7.2,14.7,21.2,14.7c5.7,0,11.3-0.7,15.2-1.8
		L288.5,254z"/>
	<path style="clip-path:url(#SVGID_00000160160267746996078720000008244210620176493212_);" d="M320.6,241.2l-9.4,14.4H293l39-55.4
		h22l9.3,55.4h-17.9l-1.7-14.4H320.6z M342.9,232.1l-1.5-11.9c-0.4-3-0.7-7.5-1.1-10.8H340c-2,3.4-4.3,7.6-6.4,10.8l-7.8,11.9H342.9
		z"/>
	<path style="clip-path:url(#SVGID_00000160160267746996078720000008244210620176493212_);" d="M386.9,201.1
		c5.3-0.9,13.4-1.4,21.4-1.4c7.6,0,15.4,0.7,21,3.2c5.2,2.1,8.9,5.6,8.9,10.8c0,8.2-7.8,13.4-18.2,15.7v0.2
		c4.8,1.5,6.9,5.1,7.6,10.1c1.1,6.3,1.7,13.5,3.1,15.8h-17.6c-0.7-1.5-1.5-6.2-2.3-13.1c-0.8-6.7-4.1-8.8-10.9-8.8h-5.2l-5.9,21.8
		H372L386.9,201.1z M397.4,224.8h7c9.3,0,16-3.9,16-9.3c0-4.5-5.3-6.5-12.2-6.5c-3.2,0-5.2,0.2-6.6,0.4L397.4,224.8z"/>
	<path style="clip-path:url(#SVGID_00000160160267746996078720000008244210620176493212_);" d="M455.9,201.1
		c5.2-0.9,13.2-1.4,20.9-1.4c7.2,0,15.4,0.8,21.2,3.7c5.5,2.5,8.7,6.4,8.7,11.8c0,7-4.6,12.3-10.8,15.6c-6.5,3.5-15.9,5.2-25.6,5.2
		c-2.9,0-5.2-0.3-7-0.3l-5.5,19.9h-16.7L455.9,201.1z M465.8,226c1.8,0.3,3.7,0.4,6.7,0.4c10.2,0,17-4.6,17-10.1
		c0-5.3-5.6-7.1-12.1-7.1c-3.2,0-5.6,0.2-7,0.3L465.8,226z"/>
	<polygon style="clip-path:url(#SVGID_00000160160267746996078720000008244210620176493212_);" points="560,232 531.6,232 
		527.9,245.4 559.8,245.4 557.1,255.5 508,255.5 523.2,200.2 570.5,200.2 567.7,210.3 537.5,210.3 534.2,222 562.8,222 	"/>
	<polygon style="clip-path:url(#SVGID_00000160160267746996078720000008244210620176493212_);" points="596.1,210.5 575,210.5 
		578,200.2 637.4,200.2 634.6,210.5 613.2,210.5 600.9,255.5 583.8,255.5 	"/>
	<path style="clip-path:url(#SVGID_00000160160267746996078720000008244210620176493212_);" d="M636,242.7
		c4.8,1.9,11.4,3.4,18.9,3.4c6.5,0,12.6-2.1,12.6-6.4c0-3.2-3.5-5.2-10.8-7.9c-8.4-3.1-16.5-7.4-16.5-14.6c0-11.2,14-18,31.4-18
		c9.6,0,15.3,1.5,18.8,2.7l-5.3,9.9c-2.6-1-8.2-2.5-14.8-2.4c-7.9,0-12.1,2.7-12.1,5.8c0,3.2,4.9,5.2,11.6,7.8
		c9.7,3.5,15.8,8,15.8,14.6c0,12.3-14.7,18.6-32.4,18.6c-11-0.1-19.1-2.1-22.8-4L636,242.7z"/>
</g>
</svg>
